<svg width="14" height="14" viewBox="0 0 14 14" fill="none" xmlns="http://www.w3.org/2000/svg">
<path d="M13.7065 0.709971C13.3165 0.319971 12.6865 0.319971 12.2965 0.709971L7.40647 5.58997L2.51647 0.699971C2.12647 0.309971 1.49646 0.309971 1.10646 0.699971C0.716465 1.08997 0.716465 1.71997 1.10646 2.10997L5.99647 6.99997L1.10646 11.89C0.716465 12.28 0.716465 12.91 1.10646 13.3C1.49646 13.69 2.12647 13.69 2.51647 13.3L7.40647 8.40997L12.2965 13.3C12.6865 13.69 13.3165 13.69 13.7065 13.3C14.0965 12.91 14.0965 12.28 13.7065 11.89L8.81646 6.99997L13.7065 2.10997C14.0865 1.72997 14.0865 1.08997 13.7065 0.709971Z" fill="#174348"/>
</svg>
